<svg xmlns="http://www.w3.org/2000/svg" viewBox="0 0 64 64"><defs><style>.cls-1{fill:#f4cdd7;}.cls-2{fill:#e88a96;}</style></defs><g id="Layer_2" data-name="Layer 2"><g id="Layer_1-2" data-name="Layer 1"><circle class="cls-1" cx="32" cy="32" r="32"/><path class="cls-2" d="M24.87,33.87l-3.33,1.74a.9.9,0,0,1-1.3-.94l.64-3.7a.89.89,0,0,0-.26-.79l-2.69-2.63a.89.89,0,0,1,.5-1.52l3.72-.54a.9.9,0,0,0,.67-.49l1.66-3.37a.9.9,0,0,1,1.61,0L27.75,25a.9.9,0,0,0,.67.49l3.72.54a.89.89,0,0,1,.5,1.52l-2.7,2.63a.88.88,0,0,0-.25.79l.63,3.7a.89.89,0,0,1-1.29.94L25.7,33.87A.87.87,0,0,0,24.87,33.87Z"/><path class="cls-2" d="M18.31,21.31l-1.94,1a.53.53,0,0,1-.76-.55L16,19.62a.49.49,0,0,0-.15-.46l-1.57-1.53a.53.53,0,0,1,.29-.89l2.17-.32a.5.5,0,0,0,.39-.28l1-2a.52.52,0,0,1,.94,0l1,2a.5.5,0,0,0,.39.28l2.17.32a.52.52,0,0,1,.29.89l-1.57,1.53a.51.51,0,0,0-.15.46l.37,2.16a.52.52,0,0,1-.76.55l-1.94-1A.51.51,0,0,0,18.31,21.31Z"/><path class="cls-2" d="M37.57,18.64A15.69,15.69,0,0,1,23.69,41a15.84,15.84,0,0,1-5.53-.88.91.91,0,0,0-1.08,1.31,17,17,0,1,0,21.69-24A.92.92,0,0,0,37.57,18.64Z"/></g></g></svg>