<svg xmlns="http://www.w3.org/2000/svg" viewBox="0 0 64 64">
	<g id="Layer_2" data-name="Layer 2"><g id="Layer_1-2" data-name="Layer 1"><circle cx="32" cy="32" r="32" style="fill:#f4cdd7"/><path d="M43.08,54.89c-.43-1.1-1.31-3.45-1.46-3.86-.2.5-1.16.92-2.86,1.24a37.38,37.38,0,0,1-6.67.53,37.38,37.38,0,0,1-6.67-.53c-1.71-.32-2.66-.74-2.86-1.24-.15.41-1,2.76-1.46,3.86a.52.52,0,0,0,.13.6c1.64,1.47,8.34,1.68,10.86,1.68S41.3,57,43,55.49A.54.54,0,0,0,43.08,54.89Z" style="fill:#f2e1e1"/><path d="M41.62,51c.15.41,1,2.76,1.46,3.86a.54.54,0,0,1-.13.6C41.3,57,34.61,57.17,32.09,57.17S22.87,57,21.23,55.49a.52.52,0,0,1-.13-.6c.42-1.1,1.31-3.45,1.46-3.86.2.5,1.15.92,2.86,1.24a37.38,37.38,0,0,0,6.67.53,37.38,37.38,0,0,0,6.67-.53c1.7-.32,2.66-.74,2.86-1.24m-19.06-.42h0a.42.42,0,0,0-.39.27c-.17.46-1,2.77-1.46,3.85A1,1,0,0,0,21,55.81c.79.7,2.53,1.19,5.34,1.49,2.51.27,5.07.29,5.8.29s3.29,0,5.8-.29c2.8-.3,4.55-.79,5.34-1.49a1,1,0,0,0,.24-1.08c-.42-1.07-1.29-3.39-1.46-3.85a.41.41,0,0,0-.39-.27h0a.41.41,0,0,0-.39.26c0,.1-.33.57-2.55,1a37.53,37.53,0,0,1-6.59.52,37.45,37.45,0,0,1-6.59-.52c-2.23-.42-2.52-.89-2.55-1a.42.42,0,0,0-.39-.26Z" style="fill:#3d3d3d"/><path d="M22.82,51.11l.16.15.06,0a2.49,2.49,0,0,0,.59.3,4.86,4.86,0,0,0,.5.17A10.4,10.4,0,0,0,25.2,52a36.46,36.46,0,0,0,6.89.57,39.29,39.29,0,0,0,6.12-.43,14,14,0,0,0,1.9-.43,4.09,4.09,0,0,0,.94-.39,1.53,1.53,0,0,0,.23-.17.73.73,0,0,0,.14-.18s0,0,0,0a.33.33,0,0,0,0-.31.73.73,0,0,0-.14-.18,1.53,1.53,0,0,0-.23-.17,4.09,4.09,0,0,0-.94-.39,14,14,0,0,0-1.9-.43,39.29,39.29,0,0,0-6.12-.43,36.46,36.46,0,0,0-6.89.57c-.4.08-.75.17-1.07.26l-.5.18a2.49,2.49,0,0,0-.59.3l-.06,0-.12.1a.51.51,0,0,0-.16.33.61.61,0,0,0,0,.13A.6.6,0,0,0,22.82,51.11Z" style="fill:#f2e1e1"/><path d="M32.09,49.05a39.29,39.29,0,0,1,6.12.43,14,14,0,0,1,1.9.43,4.09,4.09,0,0,1,.94.39,1.53,1.53,0,0,1,.23.17.73.73,0,0,1,.14.18.33.33,0,0,1,0,.31s0,0,0,0a.73.73,0,0,1-.14.18,1.53,1.53,0,0,1-.23.17,4.09,4.09,0,0,1-.94.39,14,14,0,0,1-1.9.43,39.29,39.29,0,0,1-6.12.43A36.46,36.46,0,0,1,25.2,52a10.4,10.4,0,0,1-1.07-.27,4.86,4.86,0,0,1-.5-.17,2.49,2.49,0,0,1-.59-.3l-.06,0-.16-.15a.6.6,0,0,1-.09-.15.61.61,0,0,1,0-.13.51.51,0,0,1,.16-.33l.12-.1.06,0a2.49,2.49,0,0,1,.59-.3l.5-.18c.32-.09.67-.18,1.07-.26a36.46,36.46,0,0,1,6.89-.57m0-.42a37,37,0,0,0-7,.58c-.41.08-.78.18-1.1.27a4,4,0,0,0-.53.19,3.31,3.31,0,0,0-.68.34l-.07.06a.79.79,0,0,0-.17.14.88.88,0,0,0-.28.62.79.79,0,0,0,.06.29,1,1,0,0,0,.16.26,1.6,1.6,0,0,0,.23.21l.07.06a3.9,3.9,0,0,0,.68.34l.53.18c.32.1.69.19,1.1.28a37,37,0,0,0,7,.58,40.32,40.32,0,0,0,6.19-.44,13.2,13.2,0,0,0,2-.44,4.91,4.91,0,0,0,1-.43c.11-.07.21-.15.3-.22a1.17,1.17,0,0,0,.22-.29.31.31,0,0,0,0-.09h0a.71.71,0,0,0,.06-.28.75.75,0,0,0-.1-.38,1.17,1.17,0,0,0-.22-.29c-.09-.07-.19-.15-.3-.22a4.91,4.91,0,0,0-1-.43,13.2,13.2,0,0,0-2-.44,39.1,39.1,0,0,0-6.19-.44Z" style="fill:#3d3d3d"/><polygon points="22.21 50.79 22.38 50.46 22.44 50.63 22.39 50.83 22.21 50.79" style="fill:#3d3d3d"/><polygon points="41.99 50.83 41.79 50.45 41.62 50.61 41.8 50.9 41.99 50.83" style="fill:#3d3d3d"/><path d="M47.62,21.31c.19-.87,1.1-5.27.58-7.19a2.72,2.72,0,0,0-3-2.1c-1.78.24-3.09,1-6.05,2.53a19,19,0,0,0-14.26.06c-3-1.61-4.36-2.34-6.17-2.59a2.71,2.71,0,0,0-3,2.1c-.58,2.13.61,7.34.61,7.34h0A18.11,18.11,0,0,0,13.2,32.08,18.9,18.9,0,1,0,47.62,21.31Z" style="fill:#e5f3ff"/><path d="M45.56,12a2.71,2.71,0,0,1,2.64,2.12c.52,1.92-.39,6.32-.58,7.19A18.9,18.9,0,1,1,13.2,32.08a18.11,18.11,0,0,1,3.14-10.62s-1.19-5.21-.61-7.34A2.71,2.71,0,0,1,18.37,12l.35,0c1.81.25,3.13,1,6.17,2.59a19,19,0,0,1,14.26-.06c3-1.57,4.27-2.29,6.05-2.53l.36,0m0-.53a3,3,0,0,0-.43,0c-1.83.24-3.14.94-6,2.47a19.55,19.55,0,0,0-14.2,0l-.09,0c-2.88-1.54-4.2-2.24-6-2.48a3.11,3.11,0,0,0-.43,0,3.24,3.24,0,0,0-1.88.6A3.44,3.44,0,0,0,15.21,14c-.54,2,.33,6.31.56,7.37a17.52,17.52,0,0,0-2.31,4.91,20.62,20.62,0,0,0-.79,5.82A19.43,19.43,0,1,0,48.19,21.2c.31-1.47,1-5.34.52-7.22a3.43,3.43,0,0,0-1.27-1.91,3.24,3.24,0,0,0-1.88-.6Z" style="fill:#3d3d3d"/><path d="M47.3,20.87A18.9,18.9,0,0,1,14.59,39.22,18.9,18.9,0,1,0,47.3,20.87Z" style="fill:#bde0fe"/><path d="M38.25,6.48h0s-.09,0-.09.07c-.32,2.6-.32,2.6-2.94,2.93a.09.09,0,0,0-.08.09h0a.09.09,0,0,0,.08.09c2.62.33,2.62.33,2.95,3a.08.08,0,0,0,.09.07h0s.09,0,.09-.07c.35-2.64.35-2.64,3-3,0,0,.07-.05.07-.09h0a.08.08,0,0,0-.07-.09c-2.6-.33-2.6-.33-2.94-2.93C38.34,6.51,38.29,6.48,38.25,6.48ZM35.41,9.6Zm2.83,2.94h0v0Zm0-5.66h0M41.07,9.6Z" style="fill:#fff"/><path d="M34.47,3.47h0a.06.06,0,0,0-.06,0c-.22,1.8-.22,1.8-2,2a.06.06,0,0,0-.05.06h0a.06.06,0,0,0,.05.06c1.83.24,1.83.24,2.06,2.07a.06.06,0,0,0,.06,0h0a.06.06,0,0,0,.06,0c.24-1.83.24-1.83,2-2.06a.08.08,0,0,0,0-.07h0a.06.06,0,0,0,0-.06c-1.81-.23-1.81-.23-2-2A.06.06,0,0,0,34.47,3.47Zm-2,2.16h0Zm2,2.05h0v0Zm0-3.94h0m2,1.89h0Z" style="fill:#fff"/><circle cx="22.58" cy="30.15" r="5.37" style="fill:#fff"/><path d="M22.58,35.78a5.64,5.64,0,1,1,5.64-5.63A5.64,5.64,0,0,1,22.58,35.78Zm0-10.74a5.11,5.11,0,1,0,5.1,5.11A5.11,5.11,0,0,0,22.58,25Z" style="fill:#3d3d3d"/><circle cx="22.58" cy="30.15" r="3.72" style="fill:#3d3d3d"/><circle cx="24.31" cy="28.24" r="1.43" style="fill:#fff"/><circle cx="41.48" cy="30.15" r="5.37" style="fill:#fff"/><path d="M41.48,35.78a5.64,5.64,0,1,1,5.64-5.63A5.64,5.64,0,0,1,41.48,35.78Zm0-10.74a5.11,5.11,0,1,0,5.1,5.11A5.11,5.11,0,0,0,41.48,25Z" style="fill:#3d3d3d"/><circle cx="41.48" cy="30.15" r="3.72" style="fill:#3d3d3d"/><circle cx="43.21" cy="28.24" r="1.43" style="fill:#fff"/><path d="M30.2,36.86a2,2,0,0,1-1.76-.78.24.24,0,0,1,.06-.32.23.23,0,0,1,.31.07,1.63,1.63,0,0,0,1.39.58,2.72,2.72,0,0,0,1.62-.7l1-1.05a.23.23,0,1,1,.32.32L32.13,36A3.09,3.09,0,0,1,30.2,36.86Z" style="fill:#3d3d3d"/><path d="M33.86,36.86A3.16,3.16,0,0,1,31.93,36L30.87,35a.24.24,0,0,1,0-.32.22.22,0,0,1,.32,0l1.06,1.05a2.64,2.64,0,0,0,1.61.7,1.63,1.63,0,0,0,1.39-.58.23.23,0,1,1,.38.25A2.07,2.07,0,0,1,33.86,36.86Z" style="fill:#3d3d3d"/><path d="M45.92,38.14h-.05a35.36,35.36,0,0,0-5.24-.65.27.27,0,0,1-.26-.27.26.26,0,0,1,.27-.26h0a33.83,33.83,0,0,1,5.34.66.27.27,0,0,1,.2.32A.26.26,0,0,1,45.92,38.14Z" style="fill:#3d3d3d"/><path d="M44.51,41a.25.25,0,0,1-.23-.13,12.35,12.35,0,0,0-3.89-2.24.27.27,0,0,1,.08-.53,10.47,10.47,0,0,1,2.25,1,6.79,6.79,0,0,1,2,1.49.26.26,0,0,1-.1.36A.31.31,0,0,1,44.51,41Z" style="fill:#3d3d3d"/><path d="M18.36,38.14a.26.26,0,0,1-.26-.21.27.27,0,0,1,.2-.32A33.83,33.83,0,0,1,23.64,37h0a.26.26,0,0,1,.27.26.27.27,0,0,1-.27.27,35.14,35.14,0,0,0-5.23.65Z" style="fill:#3d3d3d"/><path d="M19.77,41a.31.31,0,0,1-.13,0,.25.25,0,0,1-.1-.36,6.79,6.79,0,0,1,2-1.49,10.47,10.47,0,0,1,2.25-1,.27.27,0,0,1,.3.22.26.26,0,0,1-.22.31A12.35,12.35,0,0,0,20,40.83.28.28,0,0,1,19.77,41Z" style="fill:#3d3d3d"/><path d="M22.88,15.33c-2.36-1.25-2.84-1.5-3.9-1.62s-1.8.27-2,1.4a28,28,0,0,0,.5,5.05A18.71,18.71,0,0,1,20,17.4,33.57,33.57,0,0,1,22.88,15.33Z" style="fill:#bde0fe"/><path d="M41,15.33c2.36-1.25,2.84-1.5,3.9-1.62s1.8.27,2,1.4a28,28,0,0,1-.5,5.05,18.71,18.71,0,0,0-2.55-2.76A33.57,33.57,0,0,0,41,15.33Z" style="fill:#bde0fe"/><path d="M30.63,22.07l-.69.36a.18.18,0,0,1-.27-.19l.13-.77a.18.18,0,0,0-.05-.16l-.56-.55a.18.18,0,0,1,.1-.31l.77-.11a.18.18,0,0,0,.14-.11l.35-.69a.18.18,0,0,1,.33,0l.35.69a.16.16,0,0,0,.14.11l.77.11a.18.18,0,0,1,.1.31l-.56.55a.18.18,0,0,0-.05.16l.13.77a.18.18,0,0,1-.27.19l-.69-.36A.17.17,0,0,0,30.63,22.07Z" style="fill:#bde0fe"/><path d="M29.27,19.47l-.4.21a.11.11,0,0,1-.16-.11l.08-.45a.17.17,0,0,0,0-.1l-.33-.31a.11.11,0,0,1,.06-.19l.45-.06A.1.1,0,0,0,29,18.4l.2-.41a.11.11,0,0,1,.2,0l.2.41a.1.1,0,0,0,.08.06l.45.06a.11.11,0,0,1,.06.19l-.33.31a.17.17,0,0,0,0,.1l.08.45a.11.11,0,0,1-.16.11l-.4-.21A.09.09,0,0,0,29.27,19.47Z" style="fill:#bde0fe"/><path d="M33.26,18.92a3.25,3.25,0,0,1-2.88,4.63,3.33,3.33,0,0,1-1.14-.19.19.19,0,0,0-.23.27,3.53,3.53,0,1,0,4.5-5A.19.19,0,0,0,33.26,18.92Z" style="fill:#bde0fe"/></g></g></svg>