<?xml version="1.0" encoding="utf-8"?>
<!-- Generator: Adobe Illustrator 25.3.1, SVG Export Plug-In . SVG Version: 6.00 Build 0)  -->
<svg version="1.1" id="Layer_1" xmlns="http://www.w3.org/2000/svg" xmlns:xlink="http://www.w3.org/1999/xlink" x="0px" y="0px"
	 viewBox="0 0 20 37" style="enable-background:new 0 0 20 37;" xml:space="preserve">
<style type="text/css">
	.st0{fill:#9EB1C6;}
	.st1{fill:#BCCAD8;}
</style>
<g>
	<path class="st0" d="M6.8,22.5c1.3,2.5,4.9,3.5,6.4,4.9c0.9,0.9,0.7,1.4,1.5,2.5c0.7,1,1.3,1.8,2.7,2.7c2,1.2,2.7-0.2,2.4-1
		c-0.5-1.1-1.6-2.6-2.7-4.3c-1.1-1.6-0.8-4.4-2.8-6.2L6.8,22.5z"/>
	<path class="st1" d="M3.5,24c0-3.6,2.9-6.5,6.5-6.5h9.9v10H7C5.1,27.5,3.5,25.9,3.5,24z"/>
	<path class="st1" d="M4,25.5c1.3,2.5,4.9,3.5,6.3,5c0.9,0.9,0.7,1.4,1.4,2.6c0.7,1,1.2,1.8,2.6,2.7c2,1.3,2.7-0.1,2.4-0.9
		c-0.4-1.1-1.5-2.6-2.7-4.3c-1.1-1.6-0.7-4.4-2.8-6.3L4,25.5z"/>
	<path class="st1" d="M6.9,18.5C5.1,14,6,8.5,10.1,6.7s3.7-3,3.3-3.8c-0.6-1.1-3.5-0.4-5.3,1.3c-1.8,1.5-4.5,3.6-4.8,8.9
		c-0.3,4.6,0.8,6.6,1.1,7.4C4.8,21.5,7.8,20.9,6.9,18.5z"/>
</g>
</svg>
