<?xml version="1.0" encoding="utf-8"?>
<!-- Generator: Adobe Illustrator 25.3.1, SVG Export Plug-In . SVG Version: 6.00 Build 0)  -->
<svg version="1.1" id="Layer_1" xmlns="http://www.w3.org/2000/svg" xmlns:xlink="http://www.w3.org/1999/xlink" x="0px" y="0px"
	 viewBox="0 0 15 32" style="enable-background:new 0 0 15 32;" xml:space="preserve">
<style type="text/css">
	.st0{fill:#9EB1C6;}
	.st1{fill:#BCCAD8;}
</style>
<g>
	<path class="st0" d="M4.3,23c1.3,2.5,4.9,3.5,6.4,4.9c0.9,0.9,0.7,1.4,1.5,2.5c0.7,1,1.3,1.8,2.7,2.7c2,1.2,2.7-0.2,2.4-1
		c-0.5-1.1-1.6-2.6-2.7-4.3c-1.1-1.6-0.8-4.4-2.8-6.2L4.3,23z"/>
	<path class="st1" d="M1,24.5C1,20.9,3.9,18,7.5,18H15v10H4.5C2.6,28,1,26.4,1,24.5z"/>
	<path class="st1" d="M1.5,26c1.3,2.5,4.9,3.5,6.3,5c0.9,0.9,0.7,1.4,1.4,2.6c0.7,1,1.2,1.8,2.6,2.7c2,1.3,2.7-0.1,2.4-0.9
		c-0.4-1.1-1.5-2.6-2.7-4.3c-1.1-1.6-0.7-4.4-2.8-6.3L1.5,26z"/>
	<path class="st1" d="M4.4,19C2.6,14.5,3.5,9,7.6,7.2s3.7-3,3.3-3.8C10.3,2.3,7.4,3,5.6,4.7c-1.8,1.5-4.5,3.6-4.8,8.9
		c-0.3,4.6,0.8,6.6,1.1,7.4C2.3,22,5.3,21.4,4.4,19z"/>
</g>
</svg>
