<?xml version="1.0" encoding="utf-8"?>
<!-- Generator: Adobe Illustrator 25.3.1, SVG Export Plug-In . SVG Version: 6.00 Build 0)  -->
<svg version="1.1" id="Layer_1" xmlns="http://www.w3.org/2000/svg" xmlns:xlink="http://www.w3.org/1999/xlink" x="0px" y="0px"
	 viewBox="0 0 24 32" style="enable-background:new 0 0 24 32;" xml:space="preserve">
<style type="text/css">
	.st0{fill:#9EB1C6;}
	.st1{fill:#BCCAD8;}
	.st2{fill:#452A7A;}
	.st3{fill:#7491AA;}
</style>
<g>
	<path class="st0" d="M13.3,21.8c2.7,0.8,8.1,4.2,8.9,4.9c0.6,0.6,0.5,2.3-1.8,1.5s-6.9-2.7-8-3.1"/>
	<path class="st1" d="M0.6,18.6h16.8c0,0,0,4,0,5.1c0,1-2.1,4.2-4,4.2c-1.9,0-12.7,0-12.7,0L0.6,18.6L0.6,18.6z"/>
	<path class="st2" d="M18.8,15.3c0,1-0.6,1.4-1.3,1.4s-1.3-0.4-1.3-1.4s0.6-1.4,1.3-1.4S18.8,14.2,18.8,15.3z"/>
	<path class="st1" d="M12.5,24.9c2.6,0.9,7.8,4.6,8.6,5.4c0.6,0.6,0.3,2.4-1.9,1.4c-2.3-1-7.6-3.4-8.8-3.8"/>
	<path class="st1" d="M21.6,11.5C21.9,9,22,6.3,20.7,5.8c-1.3-0.5-4,1.8-5.1,3.3l0,0c-1.9-0.3-3.8-0.3-5.4,0c-1-1.5-3.8-3.8-5-3.3
		C3.9,6.4,4.1,9,4.3,11.5c-1.8,1.4-2.7,3.2-2.7,5.4c0,5.1,5.4,7.2,11.2,7.2s11.2-2,11.2-7.2C24,14.7,23.2,12.9,21.6,11.5z"/>
	<circle class="st3" cx="18" cy="15.3" r="2.2"/>
	<circle class="st3" cx="7.9" cy="15.3" r="2.2"/>
	<path class="st3" d="M14.5,19.4c-1.1,0-2-0.6-2.7-1.8c-0.1-0.2,0-0.4,0.1-0.5c0.2-0.1,0.4,0,0.5,0.1c0.6,1,1.7,2,3.5,1.1
		c0.2-0.1,0.4,0,0.5,0.1c0.1,0.2,0,0.4-0.1,0.5C15.7,19.2,15.1,19.4,14.5,19.4z"/>
	<path class="st3" d="M11.5,19.4c-0.5,0-1.1-0.2-1.7-0.5c-0.2-0.1-0.2-0.3-0.1-0.5c0.1-0.2,0.3-0.2,0.5-0.1c1.8,1,2.9,0,3.5-1.1
		c0.1-0.2,0.3-0.2,0.5-0.1c0.2,0.1,0.2,0.3,0.1,0.5C13.4,18.7,12.5,19.4,11.5,19.4z"/>
	<path class="st3" d="M21.6,18.7L21.6,18.7L20,18.4c-0.2,0-0.3-0.2-0.3-0.4s0.2-0.3,0.4-0.3l1.6,0.3c0.2,0,0.3,0.2,0.3,0.4
		C21.9,18.6,21.8,18.7,21.6,18.7z"/>
	<path class="st3" d="M21.2,19.8L21.2,19.8l-1.6-0.5c-0.3-0.1-0.4-0.3-0.3-0.5c0.1-0.2,0.3-0.3,0.5-0.2l1.5,0.5
		c0.2,0.1,0.3,0.3,0.2,0.5C21.4,19.7,21.3,19.8,21.2,19.8z"/>
	<path class="st3" d="M3.9,18.7c-0.2,0-0.3-0.1-0.3-0.3c0-0.2,0.1-0.4,0.3-0.4l1.6-0.3c0.2,0,0.4,0.1,0.4,0.3s-0.1,0.4-0.3,0.4
		L3.9,18.7L3.9,18.7z"/>
	<path class="st3" d="M4.4,19.8c-0.1,0-0.3-0.1-0.3-0.2c-0.1-0.2,0-0.4,0.2-0.5l1.5-0.5c0.2-0.1,0.4,0,0.5,0.2
		c0.1,0.2,0,0.4-0.2,0.5l-1.5,0.5C4.4,19.8,4.4,19.8,4.4,19.8z"/>
</g>
</svg>
