<?xml version="1.0" encoding="utf-8"?>
<!-- Generator: Adobe Illustrator 25.3.1, SVG Export Plug-In . SVG Version: 6.00 Build 0)  -->
<svg version="1.1" id="Layer_1" xmlns="http://www.w3.org/2000/svg" xmlns:xlink="http://www.w3.org/1999/xlink" x="0px" y="0px"
	 viewBox="0 0 24 32" style="enable-background:new 0 0 24 32;" xml:space="preserve">
<style type="text/css">
	.st0{fill:#9EB1C6;}
	.st1{fill:#BCCAD8;}
	.st2{fill:#F4CDD7;}
	.st3{fill:#7491AA;}
	.st4{fill:none;stroke:#7491AA;stroke-width:0.75;stroke-linecap:round;stroke-miterlimit:3.4286;}
</style>
<path class="st0" d="M12.9,16.9c2.7,0.8,8.2,4.3,9,5c0.6,0.6,0.5,2.3-1.8,1.5c-2.3-0.8-7-2.7-8.1-3.1"/>
<path class="st1" d="M0,13.6h17c0,0,0,4.1,0,5.2c0,1-2.1,4.3-4.1,4.3c-1.9,0-13,0-13,0V13.6z"/>
<path class="st1" d="M12,20c2.6,0.9,7.9,4.7,8.7,5.5c0.6,0.6,0.3,2.4-1.9,1.4c-2.3-1-7.7-3.4-8.9-3.9"/>
<path class="st1" d="M21.3,6.4c0.3-2.5,0.4-5.2-0.9-5.7c-1.3-0.5-4.1,1.8-5.2,3.3c0,0,0,0,0,0c-1.9-0.3-3.8-0.3-5.5,0
	C8.7,2.5,5.9,0.2,4.6,0.7C3.3,1.3,3.5,3.9,3.7,6.4C1.9,7.8,1,9.6,1,11.9c0,5.2,5.5,7.3,11.3,7.3s11.3-2,11.3-7.3
	C23.7,9.7,22.9,7.8,21.3,6.4z"/>
<path class="st2" d="M11.6,14.2c0,1.1,0.4,1.8,1,1.8c0.5,0,1-0.7,1-1.8C12.8,13.3,11.6,14.2,11.6,14.2z"/>
<path class="st3" d="M14.1,14.4c-1.1,0-2-0.6-2.7-1.8c-0.1-0.2,0-0.4,0.1-0.5c0.2-0.1,0.4,0,0.5,0.1c0.6,1,1.7,2,3.5,1.1
	c0.2-0.1,0.4,0,0.5,0.1c0.1,0.2,0,0.4-0.1,0.5C15.3,14.2,14.7,14.4,14.1,14.4z"/>
<path class="st3" d="M11,14.4c-0.5,0-1.1-0.2-1.7-0.5c-0.2-0.1-0.2-0.3-0.1-0.5c0.1-0.2,0.3-0.2,0.5-0.1c1.8,1,2.9,0,3.5-1.1
	c0.1-0.2,0.3-0.2,0.5-0.1c0.2,0.1,0.2,0.3,0.1,0.5C13,13.7,12,14.4,11,14.4z"/>
<path class="st3" d="M21.3,13.7C21.3,13.7,21.3,13.7,21.3,13.7l-1.7-0.3c-0.2,0-0.3-0.2-0.3-0.4c0-0.2,0.2-0.3,0.4-0.3l1.6,0.3
	c0.2,0,0.3,0.2,0.3,0.4C21.6,13.6,21.5,13.7,21.3,13.7z"/>
<path class="st3" d="M20.9,14.8c0,0-0.1,0-0.1,0l-1.5-0.5C19,14.2,18.9,14,19,13.8c0.1-0.2,0.3-0.3,0.5-0.2l1.5,0.5
	c0.2,0.1,0.3,0.3,0.2,0.5C21.1,14.7,21,14.8,20.9,14.8z"/>
<path class="st3" d="M3.3,13.7c-0.2,0-0.3-0.1-0.3-0.3c0-0.2,0.1-0.4,0.3-0.4l1.6-0.3c0.2,0,0.4,0.1,0.4,0.3c0,0.2-0.1,0.4-0.3,0.4
	L3.3,13.7C3.3,13.7,3.3,13.7,3.3,13.7z"/>
<path class="st3" d="M3.8,14.8c-0.1,0-0.3-0.1-0.3-0.2c-0.1-0.2,0-0.4,0.2-0.5l1.5-0.5c0.2-0.1,0.4,0,0.5,0.2c0.1,0.2,0,0.4-0.2,0.5
	l-1.5,0.5C3.8,14.8,3.8,14.8,3.8,14.8z"/>
<path class="st4" d="M9.2,10.5c-0.6-1.7-2.9-1.7-3.7,0"/>
<path class="st4" d="M19.4,10.5c-0.6-1.7-2.9-1.7-3.7,0"/>
</svg>
