<?xml version="1.0" encoding="utf-8"?>
<!-- Generator: Adobe Illustrator 25.3.1, SVG Export Plug-In . SVG Version: 6.00 Build 0)  -->
<svg version="1.1" id="Layer_1" xmlns="http://www.w3.org/2000/svg" xmlns:xlink="http://www.w3.org/1999/xlink" x="0px" y="0px"
	 viewBox="0 0 35 50" style="enable-background:new 0 0 35 50;" xml:space="preserve">
<style type="text/css">
	.st0{fill:#9EB1C6;}
	.st1{fill:#1FC7D4;}
	.st2{fill:#452A7A;}
	.st3{fill:#8F80BA;}
	.st4{fill:#BCCAD8;}
	.st5{fill:#7491AA;}
</style>
<path class="st0" d="M21.6,23.5c2.8,0.8,8.7,4.5,9.5,5.3c0.7,0.6,0.5,2.5-2,1.6s-7.4-2.8-8.6-3.3"/>
<rect x="13" y="20" class="st1" width="1" height="10"/>
<path class="st2" d="M27.3,16.5c0,1.1-0.6,1.5-1.3,1.5s-1.3-0.4-1.3-1.5S25.3,15,26,15S27.3,15.4,27.3,16.5z"/>
<path class="st3" d="M15.8,48v-1.7h-3.9v-0.9l4-5.1h1.1v5h0.8v1.1h-0.8V48H15.8z M13.2,45.3H16v-3.5L13.2,45.3z M18.7,48v-0.6
	c0.2-0.5,0.5-0.9,0.9-1.3c0.4-0.4,0.8-0.8,1.2-1.1c0.3-0.3,0.6-0.5,0.8-0.7c0.2-0.2,0.4-0.4,0.5-0.5c0.1-0.2,0.2-0.3,0.3-0.5
	c0-0.2,0.1-0.4,0.1-0.6c0-0.4-0.1-0.7-0.4-0.9s-0.6-0.3-1.2-0.3c-0.3,0-0.6,0-0.9,0.1c-0.3,0.1-0.6,0.2-0.9,0.3v-1.2
	c0.3-0.1,0.6-0.2,1-0.2c0.4-0.1,0.7-0.1,1.1-0.1c0.9,0,1.5,0.2,2,0.6c0.4,0.4,0.7,1,0.7,1.7c0,0.4-0.1,0.7-0.2,1
	c-0.1,0.3-0.3,0.5-0.5,0.8c-0.2,0.2-0.5,0.5-0.8,0.8c-0.4,0.3-0.7,0.6-1,0.9c-0.3,0.3-0.6,0.6-0.8,1h3.4v1H18.7z M26.5,43.7
	c-0.6,0-1-0.2-1.3-0.5c-0.3-0.3-0.4-0.7-0.4-1.2c0-0.6,0.1-1,0.4-1.3c0.3-0.3,0.7-0.5,1.3-0.5c0.6,0,1,0.2,1.3,0.5
	c0.3,0.3,0.4,0.8,0.4,1.3c0,0.5-0.1,0.9-0.4,1.2C27.5,43.5,27.1,43.7,26.5,43.7z M26,48l4.1-7.7h1.2L27.2,48H26z M26.5,42.9
	c0.3,0,0.5-0.1,0.7-0.2s0.2-0.4,0.2-0.7c0-0.4-0.1-0.6-0.2-0.8C27,41,26.8,41,26.5,41c-0.3,0-0.5,0.1-0.7,0.3
	c-0.1,0.2-0.2,0.4-0.2,0.8c0,0.3,0.1,0.5,0.2,0.7S26.2,42.9,26.5,42.9z M30.8,48.1c-0.6,0-1-0.2-1.3-0.5c-0.3-0.3-0.4-0.7-0.4-1.2
	c0-0.6,0.1-1,0.4-1.3c0.3-0.3,0.7-0.5,1.3-0.5c0.6,0,1,0.2,1.3,0.5c0.3,0.3,0.4,0.8,0.4,1.3c0,0.5-0.1,0.9-0.4,1.2
	C31.8,48,31.4,48.1,30.8,48.1z M30.8,47.3c0.3,0,0.5-0.1,0.7-0.2c0.1-0.2,0.2-0.4,0.2-0.7c0-0.4-0.1-0.6-0.2-0.8
	c-0.1-0.2-0.4-0.3-0.7-0.3c-0.3,0-0.5,0.1-0.7,0.3c-0.1,0.2-0.2,0.4-0.2,0.8c0,0.3,0.1,0.5,0.2,0.7S30.5,47.3,30.8,47.3z"/>
<path class="st4" d="M20.6,26.8c2.8,1,8.4,5,9.2,5.8c0.7,0.7,0.4,2.5-2,1.5s-8.2-3.6-9.4-4.2"/>
<g>
	<path class="st0" d="M4.3,25c1.3,2.5,4.9,3.5,6.4,4.9c0.9,0.9,0.7,1.4,1.5,2.5c0.7,1,1.3,1.8,2.7,2.7c2,1.2,2.7-0.2,2.4-1
		c-0.5-1.1-1.6-2.6-2.7-4.3c-1.1-1.6-0.8-4.4-2.8-6.2L4.3,25z"/>
	<path class="st4" d="M1.5,28c1.3,2.5,4.9,3.5,6.3,5c0.9,0.9,0.7,1.4,1.4,2.6c0.7,1,1.2,1.8,2.6,2.7c2,1.3,2.7-0.1,2.4-0.9
		c-0.4-1.1-1.5-2.6-2.7-4.3c-1.1-1.6-0.7-4.4-2.8-6.3L1.5,28z"/>
	<path class="st4" d="M4.4,21C2.7,16.5,3.6,11,7.7,9.2s3.7-3,3.3-3.8c-0.6-1.1-3.5-0.4-5.3,1.3c-1.8,1.5-4.5,3.6-4.8,8.9
		c-0.3,4.6,0.8,6.6,1.1,7.4C2.3,24,5.4,23.4,4.4,21z"/>
	<path class="st4" d="M1,26.5C1,22.9,3.9,20,7.5,20H13v10H4.5C2.6,30,1,28.4,1,26.5z"/>
</g>
<path class="st4" d="M30.5,12.4c0.3-2.7,0.4-5.5-1-6c-1.4-0.6-4.3,1.9-5.5,3.5c0,0,0,0,0,0c-2.1-0.3-4-0.3-5.8,0
	c-1.2-1.6-4-4-5.4-3.5c-1.4,0.6-1.2,3.4-1,6C9.9,13.9,9,15.8,9,18.3c0,5.6,5.8,7.7,12,7.7s12-2.2,12-7.7
	C33,15.9,32.1,13.9,30.5,12.4z"/>
<path class="st4" d="M9,20h17c0,0,0,4.4,0,5.5S23.7,30,21.7,30C19.6,30,9,30,9,30V20z"/>
<circle class="st5" cx="26.5" cy="16.5" r="2.3"/>
<circle class="st5" cx="15.7" cy="16.5" r="2.3"/>
<path class="st5" d="M22.9,20.8c-1.1,0-2.1-0.7-2.9-1.9c-0.1-0.2,0-0.4,0.1-0.5c0.2-0.1,0.4,0,0.5,0.1c0.6,1.1,1.8,2.2,3.7,1.1
	c0.2-0.1,0.4,0,0.5,0.1c0.1,0.2,0,0.4-0.1,0.5C24.1,20.7,23.5,20.8,22.9,20.8z"/>
<path class="st5" d="M19.5,20.8c-0.6,0-1.2-0.2-1.8-0.5c-0.2-0.1-0.2-0.3-0.1-0.5c0.1-0.2,0.3-0.2,0.5-0.1c1.9,1,3,0,3.7-1.1
	c0.1-0.2,0.3-0.2,0.5-0.1c0.2,0.1,0.2,0.3,0.1,0.5C21.7,20.2,20.6,20.8,19.5,20.8z"/>
<path class="st5" d="M30.5,20.1C30.5,20.1,30.5,20.1,30.5,20.1l-1.8-0.4c-0.2,0-0.3-0.2-0.3-0.4s0.2-0.3,0.4-0.3l1.7,0.4
	c0.2,0,0.3,0.2,0.3,0.4C30.8,20,30.7,20.1,30.5,20.1z"/>
<path class="st5" d="M30,21.3c0,0-0.1,0-0.1,0l-1.6-0.6c-0.2-0.1-0.3-0.3-0.2-0.5c0.1-0.2,0.3-0.3,0.5-0.2l1.6,0.6
	c0.2,0.1,0.3,0.3,0.2,0.5C30.3,21.2,30.2,21.3,30,21.3z"/>
<path class="st5" d="M11.4,20.1c-0.2,0-0.3-0.1-0.4-0.3c0-0.2,0.1-0.4,0.3-0.4l1.7-0.4c0.2,0,0.4,0.1,0.4,0.3c0,0.2-0.1,0.4-0.3,0.4
	L11.4,20.1C11.4,20.1,11.4,20.1,11.4,20.1z"/>
<path class="st5" d="M11.9,21.3c-0.2,0-0.3-0.1-0.4-0.2c-0.1-0.2,0-0.4,0.2-0.5l1.6-0.6c0.2-0.1,0.4,0,0.5,0.2
	c0.1,0.2,0,0.4-0.2,0.5L12,21.3C12,21.3,11.9,21.3,11.9,21.3z"/>
</svg>
