<?xml version="1.0" encoding="utf-8"?>
<!-- Generator: Adobe Illustrator 25.3.1, SVG Export Plug-In . SVG Version: 6.00 Build 0)  -->
<svg version="1.1" id="Layer_1" xmlns="http://www.w3.org/2000/svg" xmlns:xlink="http://www.w3.org/1999/xlink" x="0px" y="0px"
	 viewBox="0 0 15 32" style="enable-background:new 0 0 15 32;" xml:space="preserve">
<style type="text/css">
	.st0{fill:#9EB1C6;}
	.st1{fill:#BCCAD8;}
</style>
<path class="st0" d="M4.5,24.2c0.6,2.3,1.8,2.8,2.8,3.4c1,0.5,1.5,1.5,2.4,2.2c0.7,0.5,1.4,0.9,2.6,1.1c1.9,0,1.9-1,1.3-1.5
	c-0.8-0.7-1.7-0.9-2.1-1.4c-0.4-0.5-1.1-4.7-3.5-5.3L4.5,24.2z"/>
<path class="st1" d="M0.8,24.5c0-3.6,2.9-6.5,6.5-6.5H15v10H4.3C2.4,28,0.8,26.4,0.8,24.5z"/>
<path class="st1" d="M1,25.4c0.6,2.3,1.8,2.8,2.8,3.4c1,0.5,1.5,1.5,2.4,2.2c0.7,0.5,1.4,0.9,2.6,1.1c1.9,0,1.9-1,1.3-1.5
	c-0.8-0.7-1.7-0.9-2.1-1.4c-0.4-0.5-1.1-4.7-3.5-5.3L1,25.4z"/>
<path class="st1" d="M4.2,19C2.4,14.5,3.3,9,7.4,7.2s3.7-3,3.3-3.8C10.1,2.3,7.2,3,5.4,4.7c-1.8,1.5-4.5,3.6-4.8,8.9
	c-0.3,4.6,0.8,6.6,1.1,7.4C2.1,22,5.1,21.4,4.2,19z"/>
</svg>
